<?xml version="1.0" ?><svg height="210mm" id="svg6336" version="1.1" viewBox="0 0 210 210" width="210mm" xmlns="http://www.w3.org/2000/svg" xmlns:cc="http://creativecommons.org/ns#" xmlns:dc="http://purl.org/dc/elements/1.1/" xmlns:rdf="http://www.w3.org/1999/02/22-rdf-syntax-ns#" xmlns:svg="http://www.w3.org/2000/svg"><defs id="defs6330"/><path d="M 66.886719 22.435547 C 43.330805 22.435547 24.367188 41.399168 24.367188 64.955078 L 24.367188 727.4668 C 24.367188 751.0227 43.330805 769.98633 66.886719 769.98633 L 400.4082 769.98633 L 729.39844 769.98633 C 752.95434 769.98633 771.91797 751.0227 771.91797 727.4668 L 771.91797 64.955078 C 771.91797 41.399168 752.95434 22.435547 729.39844 22.435547 L 400.4082 22.435547 L 66.886719 22.435547 z " id="rect6883" style="opacity:1;fill:#ffffff;fill-opacity:1;fill-rule:nonzero;stroke:none;stroke-width:1.00157475;stroke-linecap:round;stroke-linejoin:round;stroke-miterlimit:4;stroke-dasharray:none;stroke-dashoffset:0;stroke-opacity:1" transform="scale(0.26458333)"/><path d="m 104.7715,67.305786 -6.937758,11.368894 -6.105241,-1.980236 3.113284,21.405003 -8.985463,-11.324891 -2.289034,5.155655 -11.271829,-0.877588 2.445566,10.861697 -5.161253,2.99435 13.365662,9.80865 c 0.750654,0.99148 4.744754,4.17917 5.209784,5.85671 0.273322,1.62783 -1.302377,4.23273 -1.302377,4.23273 l 3.01169,-0.89544 c 4.611363,-1.01195 9.51296,-1.51093 14.374719,-1.74851 v 20.19302 h 2.20529 v -20.21782 c 4.49563,0.0924 9.74636,0.99505 13.4534,1.77331 l 3.01168,0.89544 c 0,0 -1.5757,-2.6049 -1.30238,-4.23273 0.46503,-1.67754 4.45913,-4.86523 5.20979,-5.85671 l 7.71748,-5.66365 6.5695,-4.145 -5.16126,-2.99435 2.44556,-10.861697 -11.27182,0.877588 -2.28903,-5.155655 -10.22944,12.892326 3.34155,-22.972438 -5.77191,1.871969 z" id="rect4500" style="opacity:1;fill:#ff0000;fill-opacity:1;fill-rule:nonzero;stroke:none;stroke-width:0.27306247;stroke-linecap:butt;stroke-linejoin:miter;stroke-miterlimit:4;stroke-dasharray:none;stroke-dashoffset:0;stroke-opacity:1;paint-order:markers fill stroke"/><path d="M 66.886719 22.435547 C 43.330805 22.435547 24.367188 41.399168 24.367188 64.955078 L 24.367188 727.4668 C 24.367188 751.0227 43.330805 769.98633 66.886719 769.98633 L 186.42578 769.98633 L 186.42578 22.435547 L 66.886719 22.435547 z " id="rect4538" style="opacity:1;fill:#ff0000;fill-opacity:1;fill-rule:nonzero;stroke:none;stroke-width:2;stroke-linecap:butt;stroke-linejoin:miter;stroke-miterlimit:4;stroke-dasharray:none;stroke-dashoffset:0;stroke-opacity:1;paint-order:markers fill stroke" transform="scale(0.26458333)"/><path d="m 192.98667,5.9360717 c 6.2325,0 11.24996,5.0174583 11.24996,11.2499593 V 192.47559 c 0,6.2325 -5.01746,11.24996 -11.24996,11.24996 H 161.35863 V 5.9360717 Z" id="path4545" style="opacity:1;fill:#ff0000;fill-opacity:1;fill-rule:nonzero;stroke:none;stroke-width:0.52916664;stroke-linecap:butt;stroke-linejoin:miter;stroke-miterlimit:4;stroke-dasharray:none;stroke-dashoffset:0;stroke-opacity:1;paint-order:markers fill stroke"/></svg>